{
    "asset" : {
        "generator" : "Khronos glTF Blender I/O v1.5.17",
        "version" : "2.0"
    },
    "scene" : 0,
    "scenes" : [
        {
            "name" : "Scene",
            "nodes" : [
                6
            ]
        }
    ],
    "nodes" : [
        {
            "name" : "foli",
            "rotation" : [
                -0.1816803216934204,
                -0.6833683252334595,
                -0.6833683252334595,
                0.1816803216934204
            ],
            "scale" : [
                0.9055910110473633,
                0.9055910110473633,
                0.9055910110473633
            ],
            "translation" : [
                -109.70973205566406,
                0,
                383.14739990234375
            ]
        },
        {
            "mesh" : 0,
            "name" : "trunks_Material #42_0"
        },
        {
            "children" : [
                1
            ],
            "name" : "trunks",
            "rotation" : [
                -0.1816803216934204,
                -0.6833683252334595,
                -0.6833683252334595,
                0.1816803216934204
            ],
            "scale" : [
                0.9055910110473633,
                0.9055910110473633,
                0.9055910110473633
            ],
            "translation" : [
                -109.70973205566406,
                0,
                383.14739990234375
            ]
        },
        {
            "children" : [
                0,
                2
            ],
            "name" : "RootNode"
        },
        {
            "children" : [
                3
            ],
            "name" : "3ec5399c0d3644a69d148d3c93ec0cb6.fbx",
            "rotation" : [
                0.7071068286895752,
                0,
                0,
                0.7071068286895752
            ]
        },
        {
            "children" : [
                4
            ],
            "name" : "RootNode (model correction matrix)"
        },
        {
            "children" : [
                5
            ],
            "name" : "RootNode (gltf orientation matrix)",
            "rotation" : [
                -0.7071068286895752,
                0,
                0,
                0.7071068286895752
            ]
        }
    ],
    "materials" : [
        {
            "name" : "Material_42",
            "pbrMetallicRoughness" : {
                "baseColorTexture" : {
                    "index" : 0
                },
                "metallicFactor" : 0,
                "metallicRoughnessTexture" : {
                    "index" : 1
                }
            }
        },
        {
            "doubleSided" : true,
            "name" : "Material_136",
            "pbrMetallicRoughness" : {
                "baseColorTexture" : {
                    "index" : 2
                },
                "metallicFactor" : 0,
                "metallicRoughnessTexture" : {
                    "index" : 3
                }
            }
        }
    ],
    "meshes" : [
        {
            "name" : "trunks_Material #42_0",
            "primitives" : [
                {
                    "attributes" : {
                        "POSITION" : 0,
                        "NORMAL" : 1,
                        "TEXCOORD_0" : 2
                    },
                    "indices" : 3,
                    "material" : 0
                },
                {
                    "attributes" : {
                        "POSITION" : 4,
                        "NORMAL" : 5,
                        "TEXCOORD_0" : 6
                    },
                    "indices" : 7,
                    "material" : 1
                }
            ]
        }
    ],
    "textures" : [
        {
            "sampler" : 0,
            "source" : 0
        },
        {
            "sampler" : 0,
            "source" : 1
        },
        {
            "sampler" : 0,
            "source" : 2
        },
        {
            "sampler" : 0,
            "source" : 3
        }
    ],
    "images" : [
        {
            "mimeType" : "image/jpeg",
            "name" : "Material_42_baseColor",
            "uri" : "textures/Material_42_baseColor.jpg"
        },
        {
            "mimeType" : "image/png",
            "name" : "Material_42_metallicRoughness",
            "uri" : "textures/Material_42_metallicRoughness.png"
        },
        {
            "mimeType" : "image/jpeg",
            "name" : "Material_136_baseColor",
            "uri" : "textures/Material_136_baseColor.jpg"
        },
        {
            "mimeType" : "image/png",
            "name" : "Material_136_metallicRoughness",
            "uri" : "textures/Material_136_metallicRoughness.png"
        }
    ],
    "accessors" : [
        {
            "bufferView" : 0,
            "componentType" : 5126,
            "count" : 805,
            "max" : [
                38.98164367675781,
                18.662874221801758,
                87.37201690673828
            ],
            "min" : [
                -169.43418884277344,
                -218.4593048095703,
                -0.00028766144532710314
            ],
            "type" : "VEC3"
        },
        {
            "bufferView" : 1,
            "componentType" : 5126,
            "count" : 805,
            "type" : "VEC3"
        },
        {
            "bufferView" : 2,
            "componentType" : 5126,
            "count" : 805,
            "type" : "VEC2"
        },
        {
            "bufferView" : 3,
            "componentType" : 5123,
            "count" : 1203,
            "type" : "SCALAR"
        },
        {
            "bufferView" : 4,
            "componentType" : 5126,
            "count" : 1420,
            "max" : [
                58.269004821777344,
                40.886497497558594,
                115.32987213134766
            ],
            "min" : [
                -186.53033447265625,
                -254.36294555664062,
                29.64075469970703
            ],
            "type" : "VEC3"
        },
        {
            "bufferView" : 5,
            "componentType" : 5126,
            "count" : 1420,
            "type" : "VEC3"
        },
        {
            "bufferView" : 6,
            "componentType" : 5126,
            "count" : 1420,
            "type" : "VEC2"
        },
        {
            "bufferView" : 7,
            "componentType" : 5123,
            "count" : 3732,
            "type" : "SCALAR"
        }
    ],
    "bufferViews" : [
        {
            "buffer" : 0,
            "byteLength" : 9660,
            "byteOffset" : 0
        },
        {
            "buffer" : 0,
            "byteLength" : 9660,
            "byteOffset" : 9660
        },
        {
            "buffer" : 0,
            "byteLength" : 6440,
            "byteOffset" : 19320
        },
        {
            "buffer" : 0,
            "byteLength" : 2406,
            "byteOffset" : 25760
        },
        {
            "buffer" : 0,
            "byteLength" : 17040,
            "byteOffset" : 28168
        },
        {
            "buffer" : 0,
            "byteLength" : 17040,
            "byteOffset" : 45208
        },
        {
            "buffer" : 0,
            "byteLength" : 11360,
            "byteOffset" : 62248
        },
        {
            "buffer" : 0,
            "byteLength" : 7464,
            "byteOffset" : 73608
        }
    ],
    "samplers" : [
        {
            "magFilter" : 9729,
            "minFilter" : 9987
        }
    ],
    "buffers" : [
        {
            "byteLength" : 81072,
            "uri" : "scene.bin"
        }
    ]
}
