{
  "accessors": [
    {
      "bufferView": 2,
      "componentType": 5126,
      "count": 5280,
      "max": [
        58.269004821777344,
        40.886497497558594,
        114.63562774658203
      ],
      "min": [
        -186.16445922851562,
        -254.36294555664062,
        29.663629531860352
      ],
      "type": "VEC3"
    },
    {
      "bufferView": 2,
      "byteOffset": 63360,
      "componentType": 5126,
      "count": 5280,
      "max": [
        0.82200831174850464,
        0.82190930843353271,
        0.99214690923690796
      ],
      "min": [
        -0.82205641269683838,
        -0.82196372747421265,
        0.5693935751914978
      ],
      "type": "VEC3"
    },
    {
      "bufferView": 1,
      "componentType": 5126,
      "count": 5280,
      "max": [
        0.99950003623962402,
        0.98707324266433716
      ],
      "min": [
        0.00050000002374872565,
        0.00050000002374872565
      ],
      "type": "VEC2"
    },
    {
      "bufferView": 0,
      "componentType": 5125,
      "count": 23760,
      "max": [
        5279
      ],
      "min": [
        0
      ],
      "type": "SCALAR"
    },
    {
      "bufferView": 2,
      "byteOffset": 126720,
      "componentType": 5126,
      "count": 3177,
      "max": [
        39.4215087890625,
        19.073581695556641,
        87.364501953125
      ],
      "min": [
        -172.11090087890625,
        -218.64335632324219,
        0
      ],
      "type": "VEC3"
    },
    {
      "bufferView": 2,
      "byteOffset": 164844,
      "componentType": 5126,
      "count": 3177,
      "max": [
        1,
        0.99993187189102173,
        0.74837231636047363
      ],
      "min": [
        -1,
        -0.99993187189102173,
        -1
      ],
      "type": "VEC3"
    },
    {
      "bufferView": 1,
      "byteOffset": 42240,
      "componentType": 5126,
      "count": 3177,
      "max": [
        0.99949997663497925,
        0.99453675746917725
      ],
      "min": [
        0.00050000002374872565,
        0.00050000002374872565
      ],
      "type": "VEC2"
    },
    {
      "bufferView": 0,
      "byteOffset": 95040,
      "componentType": 5125,
      "count": 8976,
      "max": [
        3176
      ],
      "min": [
        0
      ],
      "type": "SCALAR"
    }
  ],
  "asset": {
    "extras": {
      "author": "kelvladmail (https://sketchfab.com/kelvladmail)",
      "license": "CC-BY-4.0 (http://creativecommons.org/licenses/by/4.0/)",
      "source": "https://sketchfab.com/3d-models/clover-grass-beeff00b4496409da82b7c1a9705039e",
      "title": "Clover Grass"
    },
    "generator": "Sketchfab-8.42.0",
    "version": "2.0"
  },
  "bufferViews": [
    {
      "buffer": 0,
      "byteLength": 130944,
      "byteOffset": 0,
      "name": "floatBufferViews",
      "target": 34963
    },
    {
      "buffer": 0,
      "byteLength": 67656,
      "byteOffset": 130944,
      "byteStride": 8,
      "name": "floatBufferViews",
      "target": 34962
    },
    {
      "buffer": 0,
      "byteLength": 202968,
      "byteOffset": 198600,
      "byteStride": 12,
      "name": "floatBufferViews",
      "target": 34962
    }
  ],
  "buffers": [
    {
      "byteLength": 401568,
      "uri": "scene.bin"
    }
  ],
  "images": [
    {
      "uri": "textures/Material_136_baseColor.jpeg"
    },
    {
      "uri": "textures/Material_136_metallicRoughness.png"
    },
    {
      "uri": "textures/Material_42_baseColor.jpeg"
    },
    {
      "uri": "textures/Material_42_metallicRoughness.png"
    }
  ],
  "materials": [
    {
      "doubleSided": true,
      "name": "Material_136",
      "pbrMetallicRoughness": {
        "baseColorFactor": [
          1,
          1,
          1,
          1
        ],
        "baseColorTexture": {
          "index": 0,
          "texCoord": 0
        },
        "metallicFactor": 0,
        "metallicRoughnessTexture": {
          "index": 1,
          "texCoord": 0
        },
        "roughnessFactor": 1
      }
    },
    {
      "doubleSided": true,
      "name": "Material_42",
      "pbrMetallicRoughness": {
        "baseColorFactor": [
          1,
          1,
          1,
          1
        ],
        "baseColorTexture": {
          "index": 2,
          "texCoord": 0
        },
        "metallicFactor": 0,
        "metallicRoughnessTexture": {
          "index": 3,
          "texCoord": 0
        },
        "roughnessFactor": 1
      }
    }
  ],
  "meshes": [
    {
      "name": "foli_Material #136_0",
      "primitives": [
        {
          "attributes": {
            "NORMAL": 1,
            "POSITION": 0,
            "TEXCOORD_0": 2
          },
          "indices": 3,
          "material": 0,
          "mode": 4
        }
      ]
    },
    {
      "name": "trunks_Material #42_0",
      "primitives": [
        {
          "attributes": {
            "NORMAL": 5,
            "POSITION": 4,
            "TEXCOORD_0": 6
          },
          "indices": 7,
          "material": 1,
          "mode": 4
        }
      ]
    }
  ],
  "nodes": [
    {
      "children": [
        1
      ],
      "name": "RootNode (gltf orientation matrix)",
      "rotation": [
        -0.70710678118654746,
        -0,
        -0,
        0.70710678118654757
      ]
    },
    {
      "children": [
        2
      ],
      "name": "RootNode (model correction matrix)"
    },
    {
      "children": [
        3
      ],
      "matrix": [
        1,
        0,
        0,
        0,
        0,
        0,
        1,
        0,
        0,
        -1,
        0,
        0,
        0,
        0,
        0,
        1
      ],
      "name": "3ec5399c0d3644a69d148d3c93ec0cb6.fbx"
    },
    {
      "children": [
        4,
        6
      ],
      "name": "RootNode"
    },
    {
      "children": [
        5
      ],
      "matrix": [
        -0.78602496110987596,
        -1.0054079913583572e-16,
        0.44973307617074804,
        0,
        0.44973307617074804,
        0,
        0.78602496110987585,
        0,
        -1.0054079913583572e-16,
        0.90559101104736328,
        0,
        0,
        -109.70973205566406,
        0,
        383.14739990234375,
        1
      ],
      "name": "foli"
    },
    {
      "mesh": 0,
      "name": "foli_Material #136_0"
    },
    {
      "children": [
        7
      ],
      "matrix": [
        -0.78602496110987596,
        -1.0054079913583572e-16,
        0.44973307617074804,
        0,
        0.44973307617074804,
        0,
        0.78602496110987585,
        0,
        -1.0054079913583572e-16,
        0.90559101104736328,
        0,
        0,
        -109.70973205566406,
        0,
        383.14739990234375,
        1
      ],
      "name": "trunks"
    },
    {
      "mesh": 1,
      "name": "trunks_Material #42_0"
    }
  ],
  "samplers": [
    {
      "magFilter": 9729,
      "minFilter": 9987,
      "wrapS": 10497,
      "wrapT": 10497
    }
  ],
  "scene": 0,
  "scenes": [
    {
      "name": "OSG_Scene",
      "nodes": [
        0
      ]
    }
  ],
  "textures": [
    {
      "sampler": 0,
      "source": 0
    },
    {
      "sampler": 0,
      "source": 1
    },
    {
      "sampler": 0,
      "source": 2
    },
    {
      "sampler": 0,
      "source": 3
    }
  ]
}

